<svg xmlns="http://www.w3.org/2000/svg" xmlns:xlink="http://www.w3.org/1999/xlink" viewBox="0 0 223.96 88.44"><defs><style>.cls-1{fill:#2d2532;}.cls-2,.cls-3,.cls-4,.cls-5{fill:none;stroke-miterlimit:10;}.cls-2,.cls-4{stroke:#1c1426;}.cls-2{stroke-width:1.83px;}.cls-3{stroke-width:1.78px;stroke:url(#linear-gradient);}.cls-4{stroke-width:1.82px;}.cls-5{stroke-width:1.88px;stroke:url(#linear-gradient-2);}</style><linearGradient id="linear-gradient" x1="112.94" y1="85.45" x2="112.94" y2="3.85" gradientUnits="userSpaceOnUse"><stop offset="0" stop-color="#8f8794" stop-opacity="0.8"/><stop offset="0.01" stop-color="#837887" stop-opacity="0.85"/><stop offset="0.04" stop-color="#716174" stop-opacity="0.94"/><stop offset="0.08" stop-color="#675468" stop-opacity="0.99"/><stop offset="0.2" stop-color="#645065"/><stop offset="0.52" stop-color="#3d2e40"/><stop offset="0.83" stop-color="#1f1324"/><stop offset="1" stop-color="#140919"/></linearGradient><linearGradient id="linear-gradient-2" x1="111.98" y1="1.89" x2="111.98" y2="86.55" gradientUnits="userSpaceOnUse"><stop offset="0" stop-color="#8f8794"/><stop offset="0.05" stop-color="#7a6c7d"/><stop offset="0.11" stop-color="#645065"/><stop offset="0.37" stop-color="#4d3e51"/><stop offset="0.77" stop-color="#2f2637"/><stop offset="1" stop-color="#241d2d"/></linearGradient></defs><g id="Layer_2" data-name="Layer 2"><g id="Layer_1-2" data-name="Layer 1"><g id="Rectangle_active" data-name="Rectangle active"><rect class="cls-1" x="2.26" y="3.01" width="219.83" height="83.29" rx="5.39"/><path id="Inner_Shadow" data-name="Inner Shadow" class="cls-2" d="M216.48,82.62H10.33c-1,0-1.78-.81-3.67-1.81V8.07c1.89-1,2.68-1.8,3.67-1.8H216.48a1.79,1.79,0,0,1,1.78,1.8V80.81A1.8,1.8,0,0,1,216.48,82.62Z"/><rect class="cls-3" x="4.74" y="4.74" width="216.39" height="79.82" rx="5.23"/><rect class="cls-4" x="68.67" y="-66.85" width="86.62" height="222.14" rx="7.27" transform="translate(156.2 -67.76) rotate(90)"/><rect class="cls-5" x="2.83" y="2.83" width="218.31" height="82.79" rx="5.35"/></g></g></g></svg>